<?xml version="1.0" encoding="UTF-8" standalone="no"?>
<svg
   xmlns:dc="http://purl.org/dc/elements/1.1/"
   xmlns:cc="http://creativecommons.org/ns#"
   xmlns:rdf="http://www.w3.org/1999/02/22-rdf-syntax-ns#"
   xmlns:svg="http://www.w3.org/2000/svg"
   xmlns="http://www.w3.org/2000/svg"
   xmlns:sodipodi="http://sodipodi.sourceforge.net/DTD/sodipodi-0.dtd"
   xmlns:inkscape="http://www.inkscape.org/namespaces/inkscape"
   height="16"
   viewBox="0 0 11.999999 11.999999"
   width="16"
   version="1.1"
   id="svg4"
   sodipodi:docname="close.svg"
   inkscape:version="1.0 (4035a4fb49, 2020-05-01)">
  <style
     id="style835"></style>
  <metadata
     id="metadata10">
    <rdf:RDF>
      <cc:Work
         rdf:about="">
        <dc:format>image/svg+xml</dc:format>
        <dc:type
           rdf:resource="http://purl.org/dc/dcmitype/StillImage" />
        <dc:title></dc:title>
      </cc:Work>
    </rdf:RDF>
  </metadata>
  <defs
     id="defs8" />
  <sodipodi:namedview
     inkscape:document-rotation="0"
     pagecolor="#ffffff"
     bordercolor="#666666"
     borderopacity="1"
     objecttolerance="10"
     gridtolerance="10"
     guidetolerance="10"
     inkscape:pageopacity="0"
     inkscape:pageshadow="2"
     inkscape:window-width="1524"
     inkscape:window-height="978"
     id="namedview6"
     showgrid="false"
     units="px"
     inkscape:zoom="11.731055"
     inkscape:cx="12.529693"
     inkscape:cy="16.100648"
     inkscape:window-x="761"
     inkscape:window-y="300"
     inkscape:window-maximized="0"
     inkscape:current-layer="svg4" />
  <path
     d="M 7.9800032,6.0003843 11.692366,2.2880214 c 0.410178,-0.4101776 0.410178,-1.0751778 0,-1.48471435 L 11.197461,0.30840223 c -0.410305,-0.41030572 -1.075306,-0.41030572 -1.4848425,0 L 6.0003843,4.0206366 2.2880214,0.30763313 c -0.4101776,-0.41017751 -1.0751778,-0.41017751 -1.48471435,0 L 0.30763313,0.80253792 c -0.41017751,0.41030568 -0.41017751,1.07530588 0,1.48484258 L 4.0206366,6.0003843 0.30840223,9.7126185 c -0.41030572,0.4103065 -0.41030572,1.0753065 0,1.4848425 l 0.49490482,0.494905 c 0.41017745,0.410178 1.07517775,0.410178 1.48471435,0 L 6.0003843,7.9800032 9.7126185,11.692366 c 0.4103065,0.410178 1.0753065,0.410178 1.4848425,0 l 0.494905,-0.494905 c 0.410178,-0.410305 0.410178,-1.075306 0,-1.4848425 z m 0,0"
     id="path2"
     style="stroke-width:0.0328142" />
</svg>
