<?xml version="1.0" encoding="UTF-8" standalone="no"?>
<svg
   xmlns:dc="http://purl.org/dc/elements/1.1/"
   xmlns:cc="http://creativecommons.org/ns#"
   xmlns:rdf="http://www.w3.org/1999/02/22-rdf-syntax-ns#"
   xmlns:svg="http://www.w3.org/2000/svg"
   xmlns="http://www.w3.org/2000/svg"
   xmlns:sodipodi="http://sodipodi.sourceforge.net/DTD/sodipodi-0.dtd"
   xmlns:inkscape="http://www.inkscape.org/namespaces/inkscape"
   height="18"
   width="18"
   inkscape:version="1.0 (4035a4fb49, 2020-05-01)"
   sodipodi:docname="icon_loop.svg"
   xml:space="preserve"
   viewBox="0 0 18 18"
   y="0px"
   x="0px"
   id="Capa_1"
   version="1.1"><metadata
   id="metadata127"><rdf:RDF><cc:Work
       rdf:about=""><dc:format>image/svg+xml</dc:format><dc:type
         rdf:resource="http://purl.org/dc/dcmitype/StillImage" /><dc:title></dc:title></cc:Work></rdf:RDF></metadata><defs
   id="defs125" /><sodipodi:namedview
   inkscape:current-layer="Capa_1"
   inkscape:window-maximized="0"
   inkscape:window-y="0"
   inkscape:window-x="0"
   inkscape:cy="11.583002"
   inkscape:cx="2.6605326"
   inkscape:zoom="24.228543"
   showgrid="false"
   id="namedview123"
   inkscape:window-height="1257"
   inkscape:window-width="2263"
   inkscape:pageshadow="2"
   inkscape:pageopacity="0"
   guidetolerance="10"
   gridtolerance="10"
   objecttolerance="10"
   borderopacity="1"
   bordercolor="#666666"
   pagecolor="#ffffff" />
<g
   transform="scale(0.03515625)"
   style="fill:#ffffff;fill-opacity:1"
   id="g6">
	<g
   style="fill:#ffffff;fill-opacity:1"
   id="g4">
		<path
   style="fill:#ffffff;fill-opacity:1"
   id="path2"
   d="m 426.576,11.533 c -8.157,0 -14.769,6.613 -14.769,14.769 V 52.839 C 367.315,18.574 313.088,0 256,0 187.62,0 123.333,26.629 74.98,74.98 26.628,123.332 0,187.62 0,256 c 0,68.382 26.629,132.67 74.982,181.022 2.884,2.885 6.664,4.326 10.443,4.326 3.779,0 7.56,-1.442 10.444,-4.326 5.767,-5.768 5.767,-15.119 0,-20.887 C 53.095,373.361 29.538,316.492 29.538,256 29.538,131.129 131.129,29.538 256,29.538 c 47.289,0 92.364,14.397 130.222,41.117 h -18.723 c -8.157,0 -14.769,6.613 -14.769,14.769 0,8.156 6.613,14.769 14.769,14.769 h 59.077 c 0.472,0 0.937,-0.028 1.398,-0.071 0.005,0 0.01,0 0.015,-0.001 0.41,-0.039 0.812,-0.103 1.212,-0.174 0.07,-0.013 0.141,-0.019 0.211,-0.032 0.39,-0.076 0.771,-0.175 1.15,-0.281 0.082,-0.023 0.165,-0.039 0.247,-0.064 0.368,-0.11 0.727,-0.241 1.082,-0.379 0.093,-0.035 0.187,-0.065 0.28,-0.102 0.35,-0.143 0.687,-0.306 1.023,-0.475 0.096,-0.048 0.194,-0.089 0.289,-0.139 0.352,-0.186 0.69,-0.392 1.024,-0.606 0.072,-0.046 0.148,-0.086 0.22,-0.133 1.652,-1.096 3.07,-2.514 4.165,-4.166 0.048,-0.072 0.088,-0.148 0.134,-0.221 0.213,-0.334 0.418,-0.672 0.605,-1.022 0.05,-0.096 0.092,-0.194 0.14,-0.29 0.168,-0.335 0.331,-0.672 0.474,-1.021 0.037,-0.093 0.067,-0.187 0.102,-0.281 0.138,-0.355 0.269,-0.714 0.379,-1.082 0.024,-0.079 0.039,-0.16 0.061,-0.239 0.107,-0.381 0.207,-0.766 0.283,-1.159 0.012,-0.062 0.018,-0.126 0.029,-0.188 0.156,-0.86 0.249,-1.74 0.249,-2.644 V 26.302 c -0.003,-8.157 -6.616,-14.769 -14.772,-14.769 z" />
	</g>
</g>
<g
   transform="scale(0.03515625)"
   style="fill:#ffffff;fill-opacity:1"
   id="g12">
	<g
   style="fill:#ffffff;fill-opacity:1"
   id="g10">
		
	</g>
</g>
<g
   transform="scale(0.03515625)"
   style="fill:#ffffff;fill-opacity:1"
   id="g18">
	<g
   style="fill:#ffffff;fill-opacity:1"
   id="g16">
		
	</g>
</g>
<g
   transform="scale(0.03515625)"
   style="fill:#ffffff;fill-opacity:1"
   id="g24">
	<g
   style="fill:#ffffff;fill-opacity:1"
   id="g22">
		
	</g>
</g>
<g
   transform="scale(0.03515625)"
   style="fill:#ffffff;fill-opacity:1"
   id="g30">
	<g
   style="fill:#ffffff;fill-opacity:1"
   id="g28">
		<path
   style="fill:#ffffff;fill-opacity:1"
   id="path26"
   d="m 147.773,454.979 c -3.348,-1.825 -6.69,-3.758 -9.934,-5.747 -6.953,-4.263 -16.047,-2.084 -20.311,4.87 -4.264,6.953 -2.083,16.047 4.87,20.311 3.671,2.251 7.452,4.439 11.239,6.502 2.245,1.223 4.666,1.804 7.055,1.804 5.231,0 10.301,-2.786 12.981,-7.705 3.904,-7.161 1.261,-16.132 -5.9,-20.035 z" />
	</g>
</g>
<g
   transform="scale(0.03515625)"
   style="fill:#ffffff;fill-opacity:1"
   id="g36">
	<g
   style="fill:#ffffff;fill-opacity:1"
   id="g34">
		<path
   style="fill:#ffffff;fill-opacity:1"
   id="path32"
   d="m 202.957,476.219 c -3.71,-0.89 -7.442,-1.886 -11.09,-2.963 -7.825,-2.304 -16.035,2.168 -18.341,9.992 -2.306,7.824 2.168,16.036 9.992,18.342 4.128,1.216 8.35,2.343 12.547,3.351 1.158,0.278 2.318,0.412 3.458,0.412 6.672,0 12.724,-4.554 14.35,-11.327 1.903,-7.931 -2.984,-15.903 -10.916,-17.807 z" />
	</g>
</g>
<g
   transform="scale(0.03515625)"
   style="fill:#ffffff;fill-opacity:1"
   id="g42">
	<g
   style="fill:#ffffff;fill-opacity:1"
   id="g40">
		<path
   style="fill:#ffffff;fill-opacity:1"
   id="path38"
   d="m 504.892,195.855 c -1.008,-4.188 -2.139,-8.406 -3.359,-12.535 -2.312,-7.823 -10.527,-12.287 -18.35,-9.977 -7.823,2.313 -12.29,10.529 -9.977,18.35 1.079,3.65 2.078,7.377 2.97,11.078 1.63,6.768 7.678,11.315 14.347,11.315 1.144,0 2.308,-0.135 3.47,-0.415 7.928,-1.909 12.809,-9.886 10.899,-17.816 z" />
	</g>
</g>
<g
   transform="scale(0.03515625)"
   style="fill:#ffffff;fill-opacity:1"
   id="g48">
	<g
   style="fill:#ffffff;fill-opacity:1"
   id="g46">
		<path
   style="fill:#ffffff;fill-opacity:1"
   id="path44"
   d="m 261.816,482.389 c -3.804,0.096 -7.697,0.096 -11.5,0.003 -8.151,-0.167 -14.929,6.243 -15.133,14.397 -0.203,8.155 6.243,14.929 14.398,15.132 2.124,0.053 4.283,0.08 6.419,0.08 2.183,0 4.39,-0.028 6.562,-0.083 8.155,-0.206 14.598,-6.983 14.392,-15.137 -0.206,-8.155 -7.009,-14.584 -15.138,-14.392 z" />
	</g>
</g>
<g
   transform="scale(0.03515625)"
   style="fill:#ffffff;fill-opacity:1"
   id="g54">
	<g
   style="fill:#ffffff;fill-opacity:1"
   id="g52">
		<path
   style="fill:#ffffff;fill-opacity:1"
   id="path50"
   d="m 494.043,298.031 c -7.934,-1.9 -15.904,2.991 -17.803,10.924 -0.887,3.703 -1.882,7.433 -2.956,11.084 -2.303,7.825 2.174,16.034 9.999,18.337 1.391,0.41 2.794,0.605 4.176,0.605 6.382,0 12.269,-4.17 14.162,-10.604 1.216,-4.131 2.341,-8.352 3.345,-12.543 1.9,-7.932 -2.991,-15.902 -10.923,-17.803 z" />
	</g>
</g>
<g
   transform="scale(0.03515625)"
   style="fill:#ffffff;fill-opacity:1"
   id="g60">
	<g
   style="fill:#ffffff;fill-opacity:1"
   id="g58">
		<path
   style="fill:#ffffff;fill-opacity:1"
   id="path56"
   d="m 475.062,358.231 c -7.163,-3.901 -16.133,-1.258 -20.035,5.907 -1.823,3.345 -3.756,6.693 -5.75,9.95 -4.259,6.956 -2.072,16.049 4.885,20.308 2.406,1.473 5.068,2.175 7.697,2.175 4.97,0 9.825,-2.51 12.611,-7.06 2.253,-3.68 4.44,-7.464 6.498,-11.246 3.902,-7.163 1.257,-16.133 -5.906,-20.034 z" />
	</g>
</g>
<g
   transform="scale(0.03515625)"
   style="fill:#ffffff;fill-opacity:1"
   id="g66">
	<g
   style="fill:#ffffff;fill-opacity:1"
   id="g64">
		<path
   style="fill:#ffffff;fill-opacity:1"
   id="path62"
   d="m 511.916,249.37 c -0.205,-8.026 -6.774,-14.393 -14.757,-14.393 -0.127,0 -0.255,0.002 -0.383,0.005 -8.155,0.208 -14.597,6.986 -14.389,15.14 0.049,1.945 0.075,3.922 0.075,5.879 0,1.868 -0.023,3.756 -0.068,5.614 -0.198,8.155 6.253,14.925 14.407,15.123 0.122,0.003 0.243,0.004 0.364,0.004 7.991,0 14.563,-6.379 14.758,-14.412 0.05,-2.095 0.077,-4.225 0.077,-6.33 0,-2.206 -0.029,-4.437 -0.084,-6.63 z" />
	</g>
</g>
<g
   transform="scale(0.03515625)"
   style="fill:#ffffff;fill-opacity:1"
   id="g72">
	<g
   style="fill:#ffffff;fill-opacity:1"
   id="g70">
		<path
   style="fill:#ffffff;fill-opacity:1"
   id="path68"
   d="m 441.074,411.432 c -5.914,-5.618 -15.262,-5.38 -20.881,0.534 -2.625,2.763 -5.355,5.494 -8.116,8.121 -5.909,5.623 -6.142,14.971 -0.519,20.881 2.904,3.051 6.799,4.588 10.703,4.588 3.657,0 7.32,-1.35 10.178,-4.069 3.118,-2.968 6.203,-6.053 9.169,-9.175 5.618,-5.912 5.38,-15.26 -0.534,-20.88 z" />
	</g>
</g>
<g
   transform="scale(0.03515625)"
   style="fill:#ffffff;fill-opacity:1"
   id="g78">
	<g
   style="fill:#ffffff;fill-opacity:1"
   id="g76">
		<path
   style="fill:#ffffff;fill-opacity:1"
   id="path74"
   d="m 394.534,454.059 c -4.264,-6.951 -13.358,-9.131 -20.312,-4.866 -3.241,1.99 -6.578,3.921 -9.919,5.744 -7.16,3.907 -9.797,12.879 -5.89,20.039 2.681,4.914 7.748,7.698 12.977,7.698 2.391,0 4.816,-0.582 7.062,-1.808 3.777,-2.061 7.55,-4.247 11.216,-6.495 6.954,-4.264 9.132,-13.358 4.866,-20.312 z" />
	</g>
</g>
<g
   transform="scale(0.03515625)"
   style="fill:#ffffff;fill-opacity:1"
   id="g84">
	<g
   style="fill:#ffffff;fill-opacity:1"
   id="g82">
		<path
   style="fill:#ffffff;fill-opacity:1"
   id="path80"
   d="m 480.818,133.459 c -2.062,-3.775 -4.252,-7.552 -6.506,-11.226 -4.267,-6.951 -13.363,-9.128 -20.314,-4.86 -6.951,4.267 -9.127,13.362 -4.86,20.314 1.995,3.25 3.932,6.591 5.755,9.931 2.683,4.912 7.747,7.693 12.975,7.693 2.393,0 4.82,-0.583 7.067,-1.811 7.159,-3.91 9.792,-12.882 5.883,-20.041 z" />
	</g>
</g>
<g
   transform="scale(0.03515625)"
   style="fill:#ffffff;fill-opacity:1"
   id="g90">
	<g
   style="fill:#ffffff;fill-opacity:1"
   id="g88">
		<path
   style="fill:#ffffff;fill-opacity:1"
   id="path86"
   d="m 338.575,483.214 c -2.308,-7.823 -10.521,-12.292 -18.345,-9.985 -3.663,1.081 -7.39,2.078 -11.078,2.965 -7.931,1.905 -12.817,9.879 -10.912,17.81 1.627,6.772 7.677,11.324 14.349,11.324 1.141,0 2.302,-0.134 3.461,-0.413 4.178,-1.003 8.397,-2.132 12.541,-3.355 7.822,-2.309 12.292,-10.524 9.984,-18.346 z" />
	</g>
</g>
<g
   transform="scale(0.03515625)"
   style="fill:#ffffff;fill-opacity:1"
   id="g92">
</g>
<g
   transform="scale(0.03515625)"
   style="fill:#ffffff;fill-opacity:1"
   id="g94">
</g>
<g
   transform="scale(0.03515625)"
   style="fill:#ffffff;fill-opacity:1"
   id="g96">
</g>
<g
   transform="scale(0.03515625)"
   style="fill:#ffffff;fill-opacity:1"
   id="g98">
</g>
<g
   transform="scale(0.03515625)"
   style="fill:#ffffff;fill-opacity:1"
   id="g100">
</g>
<g
   transform="scale(0.03515625)"
   style="fill:#ffffff;fill-opacity:1"
   id="g102">
</g>
<g
   transform="scale(0.03515625)"
   style="fill:#ffffff;fill-opacity:1"
   id="g104">
</g>
<g
   transform="scale(0.03515625)"
   style="fill:#ffffff;fill-opacity:1"
   id="g106">
</g>
<g
   transform="scale(0.03515625)"
   style="fill:#ffffff;fill-opacity:1"
   id="g108">
</g>
<g
   transform="scale(0.03515625)"
   style="fill:#ffffff;fill-opacity:1"
   id="g110">
</g>
<g
   transform="scale(0.03515625)"
   style="fill:#ffffff;fill-opacity:1"
   id="g112">
</g>
<g
   transform="scale(0.03515625)"
   style="fill:#ffffff;fill-opacity:1"
   id="g114">
</g>
<g
   transform="scale(0.03515625)"
   style="fill:#ffffff;fill-opacity:1"
   id="g116">
</g>
<g
   transform="scale(0.03515625)"
   style="fill:#ffffff;fill-opacity:1"
   id="g118">
</g>
<g
   transform="scale(0.03515625)"
   style="fill:#ffffff;fill-opacity:1"
   id="g120">
</g>
</svg>
