<?xml version="1.0" encoding="UTF-8" standalone="no"?>
<svg
   viewBox="0 0 18 18"
   xml:space="preserve"
   version="1.1"
   id="svg8"
   sodipodi:docname="info.svg"
   width="18"
   height="18"
   inkscape:version="1.1 (c4e8f9ed74, 2021-05-24)"
   xmlns:inkscape="http://www.inkscape.org/namespaces/inkscape"
   xmlns:sodipodi="http://sodipodi.sourceforge.net/DTD/sodipodi-0.dtd"
   xmlns="http://www.w3.org/2000/svg"
   xmlns:svg="http://www.w3.org/2000/svg"><defs
     id="defs12" /><sodipodi:namedview
     id="namedview10"
     pagecolor="#ffffff"
     bordercolor="#666666"
     borderopacity="1.0"
     inkscape:pageshadow="2"
     inkscape:pageopacity="0.0"
     inkscape:pagecheckerboard="0"
     showgrid="false"
     inkscape:zoom="16.856237"
     inkscape:cx="20.170575"
     inkscape:cy="17.975542"
     inkscape:window-width="2171"
     inkscape:window-height="1411"
     inkscape:window-x="1349"
     inkscape:window-y="0"
     inkscape:window-maximized="0"
     inkscape:current-layer="svg8" /><path
     d="M 8.0999939,8.0999939 H 9.9000061 V 13.49999 H 8.0999939 Z"
     id="path2"
     style="fill:#e0e0e0;fill-opacity:1;stroke-width:0.0421875" /><path
     d="M 8.999979,0 C 4.0275109,0 0,4.0275109 0,8.999979 0,13.972447 4.0275109,17.999958 8.999979,17.999958 13.972447,17.999958 18,13.972489 18,8.999979 18,4.0274688 13.972489,0 8.999979,0 Z m 0,16.199988 c -3.968997,0 -7.2000085,-3.231012 -7.2000085,-7.200009 0,-3.968997 3.2310115,-7.1999663 7.2000085,-7.1999663 3.968997,0 7.200009,3.2309693 7.200009,7.1999663 0,3.968997 -3.231012,7.200009 -7.200009,7.200009 z"
     id="path4"
     style="fill:#e0e0e0;fill-opacity:1;stroke-width:0.0421875" /><path
     d="M 8.0999939,4.5000106 H 9.9000061 V 6.3000232 H 8.0999939 Z"
     id="path6"
     style="fill:#e0e0e0;fill-opacity:1;stroke-width:0.0421875" /></svg>
